<?xml version="1.0" encoding="utf-8"?>
<!-- Generator: Adobe Illustrator 17.0.0, SVG Export Plug-In . SVG Version: 6.00 Build 0)  -->
<!DOCTYPE svg PUBLIC "-//W3C//DTD SVG 1.1//EN" "http://www.w3.org/Graphics/SVG/1.1/DTD/svg11.dtd">
<svg version="1.1" id="Layer_1" xmlns="http://www.w3.org/2000/svg" xmlns:xlink="http://www.w3.org/1999/xlink" x="0px" y="0px"
	 width="368.667px" height="309.333px" viewBox="0 0 368.667 309.333" enable-background="new 0 0 368.667 309.333"
	 xml:space="preserve">
<g opacity="0.1">
	<path fill="#E6E7E8" d="M46.509,263.455c-9.391,0-18.219-0.32-27.014,0.084c-10.146,0.466-17.839-7.448-17.803-17.831
		C1.953,170.416,1.83,95.123,1.835,19.831C1.836,8.984,8.34,2.387,19.106,2.386c95.352-0.012,190.704-0.011,286.057-0.002
		c10.682,0.001,17.247,6.396,17.375,16.992c0.095,7.854,0.019,15.71,0.02,23.565c0,1.298,0,2.597,0,4.293
		c9.115,0,17.779-0.034,26.442,0.024c2.158,0.014,4.397,0.015,6.457,0.558c7.288,1.92,11.797,7.869,11.799,15.439
		c0.017,76.261,0.018,152.522-0.004,228.783c-0.003,9.415-6.96,16.204-16.702,16.232c-22.841,0.067-45.682,0.038-68.523,0.039
		c-71.544,0.003-143.089,0.002-214.633-0.004c-2.174,0-4.375,0.125-6.517-0.156c-8.46-1.108-14.14-7.389-14.31-15.983
		c-0.158-7.973-0.048-15.951-0.056-23.927C46.508,266.813,46.509,265.387,46.509,263.455z M337.184,278.134
		c0-67.166,0-134.033,0-200.847c-87.014,0-173.728,0-260.569,0c0,67.028,0,133.819,0,200.847
		C163.472,278.134,250.183,278.134,337.184,278.134z M31.882,32.533c0,67.198,0,134.073,0,200.94c4.941,0,9.602,0,14.429,0
		c0.078-1.139,0.2-2.082,0.2-3.026c0.001-34.562-0.015-69.124-0.017-103.687c-0.001-20.906-0.043-41.813,0.06-62.719
		c0.042-8.571,4.784-14.767,12.488-16.401c2.561-0.543,5.287-0.42,7.938-0.42c73.838-0.01,147.677,0.004,221.515,0.014
		c1.284,0,2.567,0,3.968,0c0-5.145,0-9.811,0-14.7C205.588,32.533,118.877,32.533,31.882,32.533z"/>
	<path fill="#E6E7E8" d="M322.162,260.797c-76.708,0-153.356,0-230.432,0c0.542-1.03,0.877-1.866,1.378-2.587
		c18.637-26.885,37.277-53.768,55.951-80.627c4.099-5.896,8.751-5.974,13.072-0.315c6.815,8.924,13.577,17.89,20.418,26.794
		c4.17,5.427,8.514,5.432,12.62,0.043c16.612-21.802,33.196-43.626,49.797-65.436c4.419-5.806,8.616-5.831,13.039,0.024
		c20.96,27.746,41.897,55.509,62.797,83.299c0.748,0.994,1.447,2.333,1.465,3.521c0.169,11.233,0.189,22.468,0.232,33.703
		C322.501,259.672,322.31,260.129,322.162,260.797z"/>
	<path fill="#E6E7E8" d="M140.256,95.058c14.47-0.027,26.109,11.426,26.173,25.757c0.067,14.768-11.572,26.547-26.225,26.543
		c-14.277-0.004-25.934-11.695-25.971-26.046C114.196,106.656,125.664,95.086,140.256,95.058z"/>
</g>
</svg>
