<?xml version="1.0" encoding="utf-8"?>
<!-- Generator: Adobe Illustrator 17.0.0, SVG Export Plug-In . SVG Version: 6.00 Build 0)  -->
<!DOCTYPE svg PUBLIC "-//W3C//DTD SVG 1.1//EN" "http://www.w3.org/Graphics/SVG/1.1/DTD/svg11.dtd">
<svg version="1.1" id="Layer_1" xmlns="http://www.w3.org/2000/svg" xmlns:xlink="http://www.w3.org/1999/xlink" x="0px" y="0px"
	 width="223.489px" height="60px" viewBox="0 0 223.489 60" enable-background="new 0 0 223.489 60" xml:space="preserve">
<g>
	<g>
		<g>
			<path d="M156.418,21.577c-5.849,0-8.199,1.43-9.298,8.423c-0.964,6.135,0.73,9.078,6.64,9.078c6.026,0,8.159-1.513,9.168-7.864
				C163.981,24.598,162.269,21.577,156.418,21.577z M157.643,30.608c-0.666,4.106-1.145,4.41-3.319,4.41
				c-2.063,0-2.556-0.472-1.919-4.41c0.688-4.248,1.064-4.969,3.39-4.969C158.094,25.639,158.32,26.441,157.643,30.608z"/>
			<path d="M141.028,25.575c2.87,0,5.404,0.209,5.404,0.209l0.5-3.18c-2.434-0.848-6.236-1.09-7.912-1.09
				c-3.224,0-5.853,1.042-6.999,8.117c-1.081,6.665,1.112,9.442,4.323,9.481c3.863,0.047,5.959-0.162,8.407-1.145l0.506-3.196
				c0,0-2.76,0.279-5.727,0.279c-2.267,0-2.945-0.448-2.255-4.615C138.056,25.707,138.906,25.575,141.028,25.575z"/>
			<path d="M127.874,25.639h3.399l0.608-3.836h-3.401l0.763-4.769h-5.296c-1.17,7.431-1.318,8.309-2.492,15.783
				c-0.697,4.446,1.322,6.129,4.033,6.129h3.45l0.498-3.179c-0.177,0-1.713-0.651-1.713-0.651c-0.801-0.365-1.238-0.759-0.84-3.266
				L127.874,25.639z"/>
			<path d="M119.756,21.61c-1.946,0-3.67,1.176-4.765,2.33l-0.354-2.159h-4.577l-2.707,17.103h5.285l1.607-10.142
				c0.907-1.745,2.304-1.911,3.916-1.911c0.982,0,2.014,0.021,2.497,0.048l0.796-5.082C121.001,21.626,120.422,21.61,119.756,21.61z
				"/>
			<path d="M99.82,21.577c-5.849,0-8.203,1.429-9.298,8.423c-0.968,6.134,0.73,9.078,6.64,9.078c6.026,0,8.155-1.514,9.17-7.864
				C107.378,24.597,105.671,21.577,99.82,21.577z M101.045,30.608c-0.676,4.104-1.145,4.41-3.319,4.41
				c-2.063,0-2.563-0.472-1.919-4.41c0.683-4.249,1.064-4.969,3.39-4.969C101.496,25.639,101.711,26.439,101.045,30.608z"/>
			<path d="M83.904,21.61c-3.191,0-7.155,0.365-9.218,0.977l-3.385,21.045h5.272l0.9-5.665c0.896,0.908,2.346,1.241,3.797,1.241
				c4.787,0,6.839-2.359,7.71-8.101C89.877,25.322,88.254,21.61,83.904,21.61z M83.721,30.13c-0.655,4.078-1.369,5.012-3.041,5.082
				c-1.079,0.108-2.052-0.151-2.658-0.633l1.493-9.133h2.644C84.059,25.445,84.156,27.471,83.721,30.13z"/>
			<path d="M62.383,26.713c0.097-0.602,0.371-0.918,1.199-0.918h7.492l0.511-3.212c-1.042-0.983-5.345-1-9.218-1
				c-3.321,0-4.772,1.579-5.201,4.255l-0.257,1.531c-0.517,3.309,1.24,5.227,4.27,5.227h3.492c0.741,0,0.885,0.307,0.789,0.871
				l-0.097,0.553c-0.128,0.72-0.639,0.843-1.046,0.843h-7.795l-0.506,3.196c1.021,1.026,5.776,1.048,9.627,1.048
				c1.999,0,4.383-0.538,4.933-4.05l0.288-1.923c0.414-2.515-0.584-5.007-4.018-5.007h-3.626c-0.515,0-1.09,0.08-0.929-0.854
				L62.383,26.713z"/>
		</g>
		<path fill="#D2AB67" d="M35.954,16.679c1.223,3.461-0.168,6.052,2.788,9.103l0.091,0.085c0.915,0.915,2.061,1.597,3.343,1.953
			c-0.489-3.859-2.264-7.318-4.88-9.933C36.87,17.462,36.423,17.058,35.954,16.679 M8.138,28.27c2.3,0.405,4.367,1.502,5.972,3.067
			l0.115,0.105c5.108,5.109,1.607,9.491,5.574,13.459v0.006c1.373,1.373,3.277,2.223,5.384,2.223c2.061,0,3.931-0.815,5.302-2.141
			l0.082-0.089c1.378-1.378,2.231-3.282,2.231-5.385c0-2.102-0.853-4.006-2.231-5.384l0.004-0.003
			c-3.971-3.963-8.352-0.462-13.462-5.572v-0.007c-2.067-2.067-3.345-4.919-3.345-8.067c0-1.335,0.228-2.614,0.648-3.805
			c-0.469,0.379-0.916,0.782-1.342,1.208C10.353,20.604,8.544,24.23,8.138,28.27z M14.413,43.322
			c-1.24-3.506,0.19-6.119-2.881-9.189l-0.084-0.089c-0.9-0.871-2.015-1.522-3.259-1.865c0.489,3.859,2.264,7.318,4.88,9.934
			C13.495,42.539,13.944,42.943,14.413,43.322z M42.227,31.731c-2.355-0.414-4.464-1.55-6.085-3.172l-0.106-0.115
			c-4.955-5.094-1.534-9.408-5.47-13.344l-0.084-0.09c-1.367-1.324-3.235-2.14-5.3-2.14c-2.107,0-4.011,0.85-5.384,2.224v0.006
			c-1.376,1.378-2.229,3.282-2.229,5.385c0,2.105,0.851,4.009,2.225,5.387l0.004-0.004c3.967,3.967,8.343,0.466,13.453,5.575h0.007
			c2.067,2.067,3.345,4.922,3.345,8.075c0,1.335-0.23,2.614-0.65,3.805c0.469-0.38,0.916-0.782,1.342-1.208
			C40.012,39.397,41.821,35.771,42.227,31.731z M25.183,9.063l0.168,0.001c5.714,0.045,10.884,2.38,14.636,6.132
			c3.79,3.788,6.134,9.023,6.134,14.805c0,5.781-2.344,11.016-6.132,14.804c-3.753,3.753-8.924,6.087-14.638,6.131l-0.168,0.001
			l-0.168-0.001c-5.714-0.045-10.884-2.379-14.636-6.131c-3.79-3.788-6.134-9.023-6.134-14.804s2.344-11.017,6.134-14.805
			c3.752-3.753,8.922-6.088,14.636-6.132L25.183,9.063z"/>
	</g>
	<g>
		<path d="M170.125,21.747l-2.729,17.76h49.119l2.729-17.76H170.125z M185.368,32.831c0,0.715-0.25,1.392-0.75,2.032
			c-0.499,0.639-1.472,0.958-2.918,0.958h-4.619l1.734-10.388h3.638c0.654,0,1.193,0.066,1.617,0.198
			c0.424,0.133,0.8,0.413,1.131,0.841c0.329,0.429,0.494,0.943,0.494,1.541c0,1.233-0.649,2.055-1.948,2.466
			C184.828,30.956,185.368,31.74,185.368,32.831z M194.622,27.062h-4.703l-0.449,2.694h3.897l-0.259,1.537h-3.897l-0.486,2.899
			h4.893l-0.273,1.629h-6.75l1.734-10.388h6.568L194.622,27.062z M198.365,35.821h-1.91l1.469-8.759h-2.64l0.273-1.629h7.193
			l-0.274,1.629h-2.641L198.365,35.821z M207.483,35.821l-0.426-2.512h-3.768l-1.157,2.512h-1.758l4.977-10.388h2.305l1.902,10.388
			H207.483z"/>
		<polygon points="203.929,31.864 206.882,31.864 206.067,27.252 		"/>
		<path d="M182.08,26.871h-1.643l-0.48,2.862h1.85c0.817,0,1.358-0.161,1.625-0.483c0.266-0.323,0.4-0.661,0.4-1.016
			C183.831,27.325,183.247,26.871,182.08,26.871z"/>
		<path d="M182.578,31.282c-0.236-0.079-0.559-0.119-0.97-0.119h-1.887l-0.525,3.129h2.115c0.558,0,0.972-0.047,1.24-0.142
			c0.269-0.093,0.492-0.271,0.67-0.532c0.178-0.261,0.267-0.582,0.267-0.963c0-0.345-0.093-0.64-0.278-0.887
			C183.025,31.522,182.814,31.36,182.578,31.282z"/>
	</g>
</g>
</svg>
