<?xml version="1.0" encoding="utf-8"?>
<!-- Generator: Adobe Illustrator 17.0.0, SVG Export Plug-In . SVG Version: 6.00 Build 0)  -->
<!DOCTYPE svg PUBLIC "-//W3C//DTD SVG 1.1//EN" "http://www.w3.org/Graphics/SVG/1.1/DTD/svg11.dtd">
<svg version="1.1" id="Layer_1" xmlns="http://www.w3.org/2000/svg" xmlns:xlink="http://www.w3.org/1999/xlink" x="0px" y="0px"
	 width="50px" height="50px" viewBox="0 0 50 50" enable-background="new 0 0 50 50" xml:space="preserve">
<g>
	<g>
		
			<circle fill="none" stroke="#000000" stroke-width="1.5169" stroke-miterlimit="10" stroke-dasharray="3.926,3.926" cx="25" cy="25" r="22.5"/>
	</g>
	<path d="M18.257,24.923c-0.001-1.876-0.006-3.752,0.001-5.628c0.006-1.676,1.058-2.303,2.512-1.473
		c3.344,1.91,6.68,3.834,10.01,5.768c1.265,0.734,1.307,2.07,0.045,2.813c-3.366,1.981-6.749,3.935-10.153,5.85
		c-1.292,0.727-2.389,0.039-2.408-1.452C18.238,28.841,18.257,26.882,18.257,24.923z M20.127,19.513c0,3.748,0,7.362,0,11.068
		c3.213-1.863,6.336-3.674,9.558-5.543C26.433,23.158,23.321,21.359,20.127,19.513z"/>
</g>
</svg>
