<?xml version="1.0" encoding="utf-8"?>
<!-- Generator: Adobe Illustrator 17.0.0, SVG Export Plug-In . SVG Version: 6.00 Build 0)  -->
<!DOCTYPE svg PUBLIC "-//W3C//DTD SVG 1.1//EN" "http://www.w3.org/Graphics/SVG/1.1/DTD/svg11.dtd">
<svg version="1.1" id="Layer_1" xmlns="http://www.w3.org/2000/svg" xmlns:xlink="http://www.w3.org/1999/xlink" x="0px" y="0px"
	 width="100px" height="100px" viewBox="0 0 100 100" enable-background="new 0 0 100 100" xml:space="preserve">
<g>
	<path d="M50,5C25.147,5,5,25.147,5,50s20.147,45,45,45s45-20.147,45-45S74.853,5,50,5z M50,90.75C27.494,90.75,9.25,72.506,9.25,50
		C9.25,27.494,27.494,9.25,50,9.25S90.75,27.494,90.75,50C90.75,72.506,72.506,90.75,50,90.75z"/>
	<g>
		<path d="M54.304,58.638c0-4.173,0.019-8.346-0.011-12.519c-0.01-1.387,0.56-2.425,1.626-3.238
			c1.508-1.149,3.263-1.714,5.089-2.068c4.305-0.835,8.581-0.766,12.752,0.687c1.034,0.36,2.01,0.967,2.914,1.602
			c0.963,0.677,1.382,1.696,1.38,2.909c-0.015,8.407-0.018,16.815,0.002,25.222c0.004,1.533-0.747,2.57-1.936,3.38
			c-1.666,1.135-3.561,1.665-5.515,1.979c-3.925,0.63-7.83,0.554-11.632-0.701c-1.099-0.363-2.151-0.955-3.123-1.597
			c-1.076-0.711-1.565-1.802-1.557-3.136c0.025-4.173,0.009-8.346,0.009-12.519C54.302,58.638,54.303,58.638,54.304,58.638z
			 M66.132,48.938c2.593-0.045,5.176-0.285,7.599-1.355c0.638-0.282,1.246-0.686,1.776-1.14c0.562-0.482,0.545-1.02-0.005-1.526
			c-0.412-0.379-0.89-0.716-1.393-0.962c-1.965-0.962-4.086-1.313-6.244-1.448c-3.172-0.198-6.299,0.031-9.262,1.297
			c-0.639,0.273-1.242,0.691-1.769,1.149c-0.529,0.46-0.523,1.021,0.006,1.48c0.513,0.445,1.098,0.847,1.717,1.123
			C60.957,48.627,63.518,48.882,66.132,48.938z M75.898,61.856c-3.103,1.721-6.389,2.158-9.743,2.159
			c-3.35,0-6.628-0.459-9.68-2.143c0,1.034,0.021,1.988-0.008,2.94c-0.016,0.515,0.133,0.957,0.549,1.217
			c0.717,0.448,1.439,0.942,2.229,1.211c4.15,1.415,8.374,1.461,12.598,0.391c1.084-0.275,2.111-0.808,3.126-1.302
			c0.487-0.237,0.913-0.653,0.924-1.274C75.912,64.021,75.898,62.986,75.898,61.856z M56.475,68.471c0,0.893,0.029,1.829-0.01,2.762
			c-0.025,0.592,0.171,1.075,0.65,1.354c0.8,0.467,1.612,0.964,2.484,1.248c3.632,1.186,7.344,1.236,11.077,0.562
			c1.482-0.268,2.936-0.672,4.198-1.535c0.385-0.263,0.89-0.667,0.933-1.052c0.125-1.125,0.044-2.273,0.044-3.324
			C69.385,71.209,62.971,71.21,56.475,68.471z M56.474,49.057c0,0.882,0.029,1.815-0.01,2.745c-0.026,0.617,0.181,1.12,0.687,1.398
			c0.9,0.496,1.81,1.032,2.783,1.328c3.551,1.079,7.17,1.115,10.802,0.442c1.484-0.275,2.942-0.681,4.192-1.561
			c0.403-0.284,0.866-0.762,0.922-1.2c0.134-1.054,0.043-2.136,0.043-3.161C69.416,51.803,62.995,51.796,56.474,49.057z
			 M56.474,55.525c0,0.893,0.026,1.841-0.01,2.786c-0.022,0.568,0.164,1.038,0.62,1.307c0.797,0.471,1.605,0.976,2.476,1.261
			c3.671,1.202,7.42,1.254,11.193,0.555c1.463-0.271,2.898-0.669,4.134-1.53c0.407-0.284,0.899-0.745,0.955-1.176
			c0.137-1.071,0.045-2.171,0.045-3.201C69.401,58.267,62.969,58.276,56.474,55.525z"/>
		<path d="M21.958,55.369c0-3.074,0.028-6.148-0.012-9.222c-0.018-1.412,0.55-2.463,1.644-3.287c1.515-1.14,3.27-1.704,5.094-2.057
			c4.158-0.804,8.288-0.722,12.356,0.549c1.328,0.415,2.574,1.005,3.582,2.004c0.713,0.707,1.082,1.552,1.081,2.566
			c-0.004,6.352,0.001,12.703-0.004,19.055c-0.001,1.24-0.627,2.16-1.569,2.893c-1.532,1.191-3.33,1.763-5.195,2.12
			c-4.138,0.791-8.261,0.751-12.29-0.568c-1.155-0.378-2.252-1.021-3.269-1.701c-0.993-0.664-1.433-1.703-1.421-2.947
			c0.031-3.135,0.01-6.27,0.01-9.405C21.963,55.369,21.96,55.369,21.958,55.369z M33.814,48.937c0.008,0.05,0.017,0.1,0.025,0.15
			c1.804-0.259,3.63-0.418,5.403-0.813c1.147-0.256,2.277-0.749,3.305-1.331c1.346-0.763,1.308-1.701-0.007-2.54
			c-0.542-0.346-1.134-0.647-1.743-0.851c-4.344-1.451-8.735-1.481-13.127-0.261c-0.924,0.257-1.831,0.68-2.65,1.184
			c-1.228,0.756-1.199,1.638,0.008,2.446c0.468,0.314,0.985,0.571,1.508,0.782C28.87,48.646,31.326,48.892,33.814,48.937z
			 M24.103,49.046c0,0.926-0.05,1.885,0.023,2.835c0.031,0.405,0.216,0.911,0.51,1.157c0.55,0.461,1.199,0.84,1.863,1.12
			c1.737,0.732,3.578,1.021,5.451,1.163c2.782,0.212,5.531,0.035,8.194-0.811c0.969-0.308,1.875-0.847,2.76-1.367
			c0.289-0.17,0.569-0.6,0.593-0.93c0.075-1.066,0.028-2.141,0.028-3.161C37.043,51.804,30.61,51.803,24.103,49.046z M24.104,61.993
			c0,0.838,0.047,1.73-0.014,2.615c-0.055,0.802,0.292,1.354,0.927,1.715c0.701,0.399,1.428,0.791,2.191,1.037
			c3.657,1.177,7.385,1.242,11.14,0.557c1.463-0.267,2.899-0.663,4.141-1.515c0.412-0.283,0.928-0.73,0.982-1.155
			c0.14-1.088,0.047-2.206,0.047-3.247C37.035,64.74,30.62,64.738,24.104,61.993z M43.526,55.528
			c-6.523,2.744-12.956,2.746-19.421-0.011c0,0.996-0.034,2.033,0.021,3.065c0.016,0.307,0.207,0.704,0.449,0.881
			c0.615,0.452,1.263,0.915,1.97,1.175c4.25,1.563,8.593,1.612,12.942,0.517c1.156-0.291,2.248-0.895,3.313-1.46
			c0.335-0.177,0.659-0.68,0.693-1.061C43.588,57.59,43.526,56.53,43.526,55.528z"/>
		<path d="M65.058,38.15c-2.238,0.14-4.464,0.355-6.512,1.236c-2.888,1.242-5.852,0.956-8.818,0.663
			c-2.147-0.212-4.219-0.779-6.185-1.925c0,0.723,0,1.361,0,2.066c-0.706-0.287-1.346-0.529-1.966-0.817
			c-0.115-0.053-0.206-0.288-0.206-0.439c-0.011-3.5-0.022-7,0.001-10.5c0.008-1.266,0.732-2.167,1.704-2.883
			c1.627-1.199,3.515-1.746,5.466-2.092c4.044-0.718,8.051-0.594,11.987,0.659c1.347,0.429,2.603,1.038,3.603,2.081
			c0.617,0.643,0.974,1.403,0.976,2.298c0.008,3.134,0.003,6.267,0.001,9.401C65.108,37.958,65.085,38.017,65.058,38.15z
			 M53.244,25.202c-0.009-0.057-0.018-0.114-0.027-0.171c-1.843,0.268-3.697,0.475-5.524,0.823
			c-1.275,0.243-2.499,0.718-3.535,1.553c-0.838,0.675-0.875,1.347-0.021,2.003c0.57,0.438,1.226,0.814,1.901,1.059
			c4.195,1.516,8.469,1.539,12.772,0.533c1.328-0.311,2.625-0.749,3.66-1.697c0.658-0.602,0.674-1.203-0.018-1.758
			c-0.546-0.438-1.171-0.817-1.817-1.085C58.274,25.48,55.78,25.201,53.244,25.202z M43.524,31.797c0,0.849,0.044,1.743-0.013,2.632
			c-0.05,0.773,0.267,1.322,0.889,1.67c0.739,0.414,1.498,0.831,2.3,1.086c3.598,1.143,7.267,1.209,10.961,0.553
			c1.505-0.267,2.977-0.676,4.26-1.539c0.4-0.269,0.908-0.7,0.957-1.106c0.132-1.106,0.045-2.239,0.045-3.281
			C56.445,34.531,50.031,34.536,43.524,31.797z"/>
		<path d="M47.924,46.278c-0.123-0.848-0.227-1.564-0.326-2.248c1.507,0.208,3.06,0.423,4.582,0.633c0,0.663,0,1.326,0,2.142
			C50.687,46.62,49.276,46.445,47.924,46.278z"/>
		<path d="M47.865,52.748c0-0.831,0-1.513,0-2.159c1.357,0.15,2.683,0.289,4.005,0.459c0.114,0.015,0.281,0.227,0.288,0.355
			c0.032,0.565,0.014,1.132,0.014,1.867C50.706,53.093,49.296,52.922,47.865,52.748z"/>
		<path d="M47.856,59.219c0-0.808,0-1.492,0-2.214c0.926,0.139,1.821,0.274,2.716,0.408c0.1,0.015,0.2,0.034,0.301,0.044
			c1.3,0.13,1.3,0.13,1.299,1.426c0,0.24,0,0.48,0,0.862C50.703,59.567,49.307,59.396,47.856,59.219z"/>
		<path d="M47.861,63.48c0.918,0.135,1.796,0.273,2.676,0.39c0.402,0.053,0.814,0.04,1.213,0.109
			c0.153,0.026,0.393,0.19,0.401,0.305c0.04,0.602,0.019,1.209,0.019,1.939c-1.486-0.184-2.888-0.357-4.309-0.533
			C47.861,64.91,47.861,64.208,47.861,63.48z"/>
	</g>
</g>
</svg>
