<?xml version="1.0" encoding="utf-8"?>
<!-- Generator: Adobe Illustrator 17.0.0, SVG Export Plug-In . SVG Version: 6.00 Build 0)  -->
<!DOCTYPE svg PUBLIC "-//W3C//DTD SVG 1.1//EN" "http://www.w3.org/Graphics/SVG/1.1/DTD/svg11.dtd">
<svg version="1.1" id="Layer_1" xmlns="http://www.w3.org/2000/svg" xmlns:xlink="http://www.w3.org/1999/xlink" x="0px" y="0px"
	 width="50px" height="50px" viewBox="0 0 50 50" enable-background="new 0 0 50 50" xml:space="preserve">
<g>
	<g>
		<g id="XMLID_2_">
			<defs>
				<rect id="XMLID_3_" x="-692.172" y="-1" width="595.443" height="182"/>
			</defs>
			<use xlink:href="#XMLID_3_"  overflow="visible" fill="#05568B"/>
			<clipPath id="XMLID_23_">
				<use xlink:href="#XMLID_3_"  overflow="visible"/>
			</clipPath>
			
				<radialGradient id="XMLID_24_" cx="-320.7664" cy="112.4145" r="248.9594" gradientTransform="matrix(0.9634 0.1738 -0.1738 0.9634 76.043 44.6812)" gradientUnits="userSpaceOnUse">
				<stop  offset="0" style="stop-color:#1D75A3"/>
				<stop  offset="0.3593" style="stop-color:#1A71A0"/>
				<stop  offset="0.7182" style="stop-color:#116597"/>
				<stop  offset="1" style="stop-color:#05568B"/>
			</radialGradient>
			<path id="XMLID_15_" clip-path="url(#XMLID_23_)" fill="url(#XMLID_24_)" d="M4.074,16.587l-250.881,79.642l269.908-38.22
				c-4.797-14.479-11.263-28.591-19.26-42.158v-0.002L4.074,16.587z"/>
		</g>
	</g>
</g>
<g>
	<g>
		<path d="M16.481,34.481c-0.062-0.024-0.124-0.05-0.186-0.073c-0.463-0.17-0.774-0.598-0.774-1.09
			c-0.002-4.949-0.002-9.899,0-14.848c0-0.669,0.541-1.169,1.245-1.169c1.469,0,2.938,0,4.406,0c1.598,0,3.197,0.001,4.795,0.001
			c0.071,0,0.142,0,0.231,0.044c-0.04,0.041-0.079,0.084-0.12,0.124c-0.297,0.287-0.599,0.57-0.891,0.863
			c-0.112,0.113-0.227,0.159-0.389,0.159c-2.518-0.005-5.036-0.004-7.554-0.004c-0.172,0-0.344,0-0.53,0c0,4.936,0,9.857,0,14.794
			c4.517,0,9.042,0,13.593,0c0-0.073,0-0.145,0-0.217c0-2.37,0-4.74-0.004-7.109c0-0.14,0.036-0.24,0.142-0.337
			c0.345-0.315,0.679-0.642,1.039-0.986c0.008,0.072,0.017,0.113,0.017,0.153c0.001,2.722-0.012,5.443,0.009,8.165
			c0.006,0.744-0.215,1.285-0.957,1.531C25.863,34.481,21.172,34.481,16.481,34.481z"/>
		<path d="M34.48,18.445c-0.105,0.496-0.307,0.947-0.636,1.336c-0.112,0.132-0.227,0.261-0.349,0.383
			c-2.668,2.64-5.336,5.279-8.008,7.914c-0.097,0.095-0.228,0.173-0.358,0.215c-1.346,0.438-2.696,0.866-4.044,1.301
			c-0.22,0.071-0.425,0.082-0.601-0.094c-0.174-0.175-0.168-0.378-0.101-0.601c0.411-1.361,0.812-2.726,1.229-4.085
			c0.05-0.163,0.149-0.329,0.269-0.449c2.641-2.649,5.288-5.291,7.935-7.935c0.499-0.498,1.08-0.844,1.796-0.902
			c0.787-0.064,1.426,0.264,1.973,0.802c0.435,0.428,0.765,0.917,0.872,1.533c0.002,0.01,0.015,0.019,0.022,0.028
			C34.48,18.075,34.48,18.26,34.48,18.445z M21.876,28.09c0.95-0.305,1.864-0.598,2.776-0.895c0.055-0.018,0.106-0.062,0.148-0.104
			c2.639-2.607,5.278-5.214,7.911-7.827c0.173-0.171,0.317-0.379,0.442-0.588c0.209-0.349,0.198-0.718-0.038-1.045
			c-0.175-0.242-0.383-0.469-0.612-0.66c-0.368-0.307-0.799-0.36-1.227-0.137c-0.231,0.121-0.455,0.278-0.639,0.462
			c-2.46,2.445-4.907,4.904-7.374,7.343c-0.363,0.359-0.612,0.74-0.737,1.237C22.343,26.608,22.104,27.327,21.876,28.09z"/>
	</g>
	<g>
		
			<circle fill="none" stroke="#000000" stroke-width="1.5169" stroke-miterlimit="10" stroke-dasharray="3.926,3.926" cx="25" cy="25" r="22.5"/>
	</g>
</g>
</svg>
