<?xml version="1.0" encoding="utf-8"?>
<!-- Generator: Adobe Illustrator 17.0.0, SVG Export Plug-In . SVG Version: 6.00 Build 0)  -->
<!DOCTYPE svg PUBLIC "-//W3C//DTD SVG 1.1//EN" "http://www.w3.org/Graphics/SVG/1.1/DTD/svg11.dtd">
<svg version="1.1" id="Layer_1" xmlns="http://www.w3.org/2000/svg" xmlns:xlink="http://www.w3.org/1999/xlink" x="0px" y="0px"
	 width="100px" height="100px" viewBox="0 0 100 100" enable-background="new 0 0 100 100" xml:space="preserve">
<g>
	<path d="M50,5C25.147,5,5,25.147,5,50s20.147,45,45,45s45-20.147,45-45S74.853,5,50,5z M50,90.75C27.494,90.75,9.25,72.506,9.25,50
		C9.25,27.494,27.494,9.25,50,9.25S90.75,27.494,90.75,50C90.75,72.506,72.506,90.75,50,90.75z"/>
	<g>
		<path d="M48.398,47.744c1.975-1.492,3.938-2.997,5.889-4.512c2.112-1.676,3.169-3.903,3.169-6.682c0-1.836-0.85-3.421-2.549-4.753
			c-1.584-1.217-3.318-1.825-5.2-1.825c-5.121,0-7.68,2.939-7.68,8.817h-5.786c0-4.385,1.171-7.898,3.513-10.539
			c2.434-2.709,5.752-4.064,9.954-4.064c3.535,0,6.716,1.171,9.54,3.513c3.008,2.457,4.512,5.419,4.512,8.886
			c0,3.513-1.091,6.418-3.272,8.714c-2.044,1.676-4.087,3.353-6.13,5.028c-2.182,1.998-3.272,4.42-3.272,7.267v4.443H45.23v-4.443
			C45.23,53.324,46.286,50.041,48.398,47.744z M44.575,75.814V68.96h7.198v6.854H44.575z"/>
	</g>
</g>
</svg>
