<?xml version="1.0" encoding="utf-8"?>
<!-- Generator: Adobe Illustrator 17.0.0, SVG Export Plug-In . SVG Version: 6.00 Build 0)  -->
<!DOCTYPE svg PUBLIC "-//W3C//DTD SVG 1.1//EN" "http://www.w3.org/Graphics/SVG/1.1/DTD/svg11.dtd">
<svg version="1.1" id="Layer_1" xmlns="http://www.w3.org/2000/svg" xmlns:xlink="http://www.w3.org/1999/xlink" x="0px" y="0px"
	 width="100px" height="100px" viewBox="0 0 100 100" enable-background="new 0 0 100 100" xml:space="preserve">
<g>
	<path d="M50,5C25.147,5,5,25.147,5,50s20.147,45,45,45s45-20.147,45-45S74.853,5,50,5z M50,90.75C27.494,90.75,9.25,72.506,9.25,50
		C9.25,27.494,27.494,9.25,50,9.25S90.75,27.494,90.75,50C90.75,72.506,72.506,90.75,50,90.75z"/>
	<g>
		<g>
			<path d="M42.689,59.856c0.933-1.667,1.846-3.346,2.802-5c3.357-5.813,6.985-11.448,11.152-16.721
				c2.269-2.871,4.69-5.604,7.455-8.015c1.19-1.038,2.438-1.998,3.791-2.816c0.07-0.042,0.166-0.062,0.195-0.158
				c0.022,0,0.044,0,0.065,0c0.153,0.174,0.305,0.348,0.458,0.522c0.145,0.077,0.269,0.182,0.379,0.304
				c1.942,2.158,4.139,4.035,6.426,5.811c0.808,0.627,1.634,1.23,2.476,1.809c0.072,0.049,0.139,0.105,0.207,0.159
				c0.155,0.123,0.152,0.222-0.038,0.306c-0.318,0.141-0.643,0.266-0.961,0.407c-1.348,0.595-2.604,1.355-3.839,2.15
				c-2.153,1.386-4.16,2.969-6.105,4.631c-2.201,1.881-4.253,3.922-6.259,6.006c-1.447,1.502-2.822,3.073-4.177,4.661
				c-2.252,2.642-4.393,5.371-6.454,8.163c-1.227,1.663-2.422,3.349-3.588,5.056c-1.025,1.5-2.028,3.015-3.022,4.536
				c-0.082,0.126-0.151,0.267-0.297,0.34c-0.181,0.27-0.362,0.54-0.567,0.847c-0.122-0.135-0.234-0.259-0.346-0.382
				c-3.96-4.311-8.379-8.058-13.486-10.955c-2.169-1.23-4.438-2.237-6.845-2.913c-0.104-0.029-0.202-0.083-0.316-0.057
				c0-0.022,0-0.044,0-0.065c0.836-0.804,1.609-1.668,2.391-2.523c1.81-1.978,3.584-3.987,5.209-6.123
				c0.111-0.145,0.202-0.151,0.348-0.078c0.261,0.132,0.528,0.25,0.793,0.374c0.47,0.099,0.842,0.394,1.234,0.637
				c1.638,1.017,3.148,2.2,4.575,3.5c2.09,1.904,3.923,4.03,5.589,6.305c0.179,0.244,0.179,0.244,0.324-0.036
				C42.382,60.301,42.484,60.046,42.689,59.856z"/>
		</g>
	</g>
</g>
</svg>
