<?xml version="1.0" encoding="utf-8"?>
<!-- Generator: Adobe Illustrator 17.0.0, SVG Export Plug-In . SVG Version: 6.00 Build 0)  -->
<!DOCTYPE svg PUBLIC "-//W3C//DTD SVG 1.1//EN" "http://www.w3.org/Graphics/SVG/1.1/DTD/svg11.dtd">
<svg version="1.1" id="Layer_1" xmlns="http://www.w3.org/2000/svg" xmlns:xlink="http://www.w3.org/1999/xlink" x="0px" y="0px"
	 width="255.735px" height="67.361px" viewBox="0 0 255.735 67.361" enable-background="new 0 0 255.735 67.361"
	 xml:space="preserve">
<g>
	<g>
		<path d="M237.031,21.031c-8.785,0-12.314,2.148-13.964,12.651c-1.448,9.214,1.097,13.634,9.972,13.634
			c9.051,0,12.253-2.273,13.769-11.81C248.39,25.567,245.818,21.031,237.031,21.031z M238.87,34.593
			c-1.001,6.166-1.719,6.623-4.985,6.623c-3.098,0-3.839-0.709-2.882-6.623c1.034-6.38,1.598-7.463,5.091-7.463
			C239.548,27.13,239.888,28.335,238.87,34.593z"/>
		<path d="M213.917,27.034c4.31,0,8.116,0.314,8.116,0.314l0.751-4.776c-3.655-1.274-9.366-1.637-11.883-1.637
			c-4.842,0-8.79,1.564-10.512,12.19c-1.623,10.01,1.67,14.181,6.493,14.24c5.802,0.07,8.949-0.243,12.626-1.719l0.759-4.8
			c0,0-4.146,0.419-8.601,0.419c-3.405,0-4.423-0.673-3.386-6.931C209.454,27.233,210.731,27.034,213.917,27.034z"/>
		<path d="M194.162,27.13h5.105l0.913-5.761h-5.108l1.146-7.163h-7.955c-1.759,11.161-1.98,12.479-3.743,23.703
			c-1.049,6.678,1.984,9.204,6.057,9.204h5.182l0.749-4.775c-0.266,0-2.572-0.977-2.572-0.977c-1.204-0.548-1.859-1.139-1.261-4.905
			L194.162,27.13z"/>
		<path d="M181.968,21.08c-2.921,0-5.51,1.766-7.156,3.5l-0.532-3.242h-6.874l-4.066,25.687h7.938l2.413-15.232
			c1.364-2.621,3.462-2.871,5.881-2.871c1.476,0,3.025,0.032,3.752,0.073l1.194-7.632C183.839,21.104,182.968,21.08,181.968,21.08z"
			/>
		<path d="M152.028,21.031c-8.785,0-12.319,2.147-13.964,12.651c-1.453,9.212,1.097,13.634,9.972,13.634
			c9.051,0,12.246-2.274,13.771-11.81C163.379,25.566,160.814,21.031,152.028,21.031z M153.868,34.593
			c-1.016,6.164-1.719,6.623-4.986,6.623c-3.098,0-3.848-0.709-2.88-6.623c1.025-6.382,1.597-7.463,5.091-7.463
			C154.545,27.13,154.869,28.333,153.868,34.593z"/>
		<path d="M128.124,21.08c-4.791,0-10.745,0.548-13.843,1.467l-5.083,31.606h7.918l1.352-8.508c1.348,1.364,3.525,1.864,5.704,1.864
			c7.188,0,10.269-3.542,11.577-12.167C137.095,26.655,134.659,21.08,128.124,21.08z M127.85,33.875
			c-0.984,6.124-2.056,7.528-4.566,7.632c-1.62,0.162-3.082-0.226-3.993-0.951l2.243-13.716h3.97
			C128.358,26.84,128.504,29.882,127.85,33.875z"/>
		<path d="M95.805,28.744c0.145-0.903,0.557-1.379,1.8-1.379h11.254l0.766-4.824c-1.564-1.476-8.027-1.501-13.843-1.501
			c-4.986,0-7.166,2.372-7.81,6.39l-0.388,2.299c-0.774,4.97,1.863,7.85,6.415,7.85h5.244c1.113,0,1.331,0.461,1.186,1.308
			l-0.145,0.831c-0.193,1.082-0.96,1.267-1.572,1.267H87.003l-0.759,4.8c1.533,1.541,8.674,1.574,14.458,1.574
			c3.001,0,6.583-0.807,7.407-6.083l0.435-2.889c0.621-3.777-0.879-7.519-6.035-7.519h-5.445c-0.775,0-1.637,0.121-1.396-1.283
			L95.805,28.744z"/>
	</g>
	<path fill="#D2AB67" d="M56.112,13.675c1.836,5.198-0.252,9.089,4.187,13.671l0.137,0.127c1.372,1.374,3.094,2.399,5.02,2.934
		c-0.736-5.796-3.4-10.991-7.329-14.918C57.488,14.85,56.815,14.244,56.112,13.675 M14.337,31.083
		c3.455,0.609,6.557,2.257,8.968,4.606l0.171,0.158c7.673,7.673,2.413,14.253,8.372,20.214v0.01c2.062,2.062,4.92,3.338,8.086,3.338
		c3.096,0,5.903-1.224,7.961-3.215l0.125-0.133c2.069-2.07,3.349-4.928,3.349-8.087c0-3.157-1.28-6.017-3.349-8.086l0.005-0.004
		c-5.963-5.952-12.545-0.694-20.219-8.368v-0.011c-3.102-3.104-5.023-7.388-5.023-12.116c0-2.004,0.344-3.926,0.975-5.714
		c-0.705,0.569-1.376,1.175-2.017,1.814C17.662,19.568,14.945,25.015,14.337,31.083z M23.76,53.689
		c-1.86-5.266,0.287-9.189-4.325-13.801l-0.126-0.133c-1.352-1.308-3.027-2.285-4.894-2.801c0.735,5.796,3.4,10.991,7.327,14.92
		C22.382,52.513,23.055,53.119,23.76,53.689z M65.532,36.28c-3.538-0.621-6.704-2.328-9.14-4.764l-0.159-0.173
		c-7.441-7.65-2.303-14.13-8.213-20.041l-0.127-0.136c-2.052-1.988-4.859-3.213-7.958-3.213c-3.165,0-6.024,1.276-8.086,3.34v0.01
		c-2.069,2.07-3.349,4.928-3.349,8.087c0,3.161,1.278,6.021,3.344,8.091l0.005-0.005c5.958,5.958,12.529,0.701,20.203,8.372h0.011
		c3.104,3.104,5.023,7.392,5.023,12.127c0,2.004-0.344,3.926-0.975,5.714c0.703-0.57,1.376-1.175,2.015-1.814
		C62.207,47.794,64.924,42.347,65.532,36.28z M39.935,2.236l0.251,0.001c8.582,0.067,16.348,3.574,21.982,9.21
		c5.691,5.689,9.211,13.551,9.211,22.235c0,8.682-3.521,16.544-9.21,22.233c-5.636,5.636-13.402,9.141-21.984,9.208l-0.251,0.001
		l-0.252-0.001c-8.582-0.067-16.348-3.573-21.983-9.208c-5.691-5.689-9.211-13.551-9.211-22.233s3.521-16.546,9.211-22.235
		c5.634-5.636,13.401-9.143,21.983-9.21L39.935,2.236z"/>
</g>
</svg>
