<?xml version="1.0" encoding="utf-8"?>
<!-- Generator: Adobe Illustrator 17.0.0, SVG Export Plug-In . SVG Version: 6.00 Build 0)  -->
<!DOCTYPE svg PUBLIC "-//W3C//DTD SVG 1.1//EN" "http://www.w3.org/Graphics/SVG/1.1/DTD/svg11.dtd">
<svg version="1.1" id="Layer_1" xmlns="http://www.w3.org/2000/svg" xmlns:xlink="http://www.w3.org/1999/xlink" x="0px" y="0px"
	 width="80px" height="80px" viewBox="0 0 80 80" enable-background="new 0 0 80 80" xml:space="preserve">
<g>
	<path fill="#54565F" d="M5,13.691c0.132-0.073,0.106-0.217,0.132-0.329c0.224-0.961,0.676-1.801,1.408-2.457
		c2.671-2.393,5.334-4.795,8.045-7.142c1.92-1.662,4.887-1.497,6.651,0.328c1.107,1.146,2.151,2.353,3.226,3.53
		c0.118,0.129,0.193,0.211-0.045,0.307c-2.356,0.951-4.431,2.362-6.386,3.956c-3.277,2.671-6.109,5.744-8.31,9.371
		c-0.12,0.198-0.188,0.208-0.337,0.041c-1.079-1.206-2.171-2.401-3.244-3.614c-0.503-0.568-0.815-1.244-1-1.981
		C5.11,15.577,5.135,15.423,5,15.336C5,14.788,5,14.24,5,13.691z"/>
	<path fill="#54565F" d="M55.351,7.821c0.791-0.874,1.554-1.725,2.326-2.567c0.496-0.541,0.945-1.13,1.534-1.578
		c1.963-1.49,4.52-1.402,6.416,0.264c2.592,2.277,5.17,4.571,7.731,6.882c2.036,1.838,2.196,4.927,0.384,6.991
		c-1.019,1.16-2.067,2.295-3.101,3.442c-0.139,0.155-0.219,0.26-0.384-0.014c-1.982-3.282-4.51-6.1-7.398-8.603
		c-2.021-1.751-4.184-3.296-6.619-4.432C55.96,8.075,55.675,7.96,55.351,7.821z"/>
	<path fill="#54565F" d="M66.313,77.386c0.323-0.133,0.66-0.035,0.989-0.055c-0.005,0.018-0.007,0.036-0.008,0.055
		C66.967,77.386,66.64,77.386,66.313,77.386z"/>
	<path fill="#54565F" d="M13.6,77.386c0.249-0.099,0.497-0.098,0.746,0C14.097,77.386,13.848,77.386,13.6,77.386z"/>
	<path fill="#54565F" d="M70.502,53.92c2.565-5.945,3.295-12.121,2.218-18.495c-0.951-5.625-3.202-10.706-6.86-15.084
		C58.79,11.88,49.709,7.806,38.67,8.228c-4.398,0.168-8.573,1.291-12.527,3.222c-5.442,2.658-9.855,6.513-13.143,11.59
		C8.213,30.431,6.646,38.509,8.25,47.154c1.121,6.041,3.862,11.315,7.991,15.865c0.176,0.193,0.186,0.308,0.044,0.527
		c-1.343,2.069-2.56,4.208-3.528,6.482c-0.602,1.413-1.124,2.852-1.21,4.403c-0.059,1.053,0.136,2.023,1.129,2.63
		c0.218,0.133,0.465,0.218,0.698,0.325c0.075,0,0.151,0,0.226,0.001c0.249-0.042,0.497-0.042,0.746,0c0.101,0,0.201,0,0.302,0
		c0.266-0.059,0.541-0.058,0.806-0.137c1.793-0.532,3.354-1.512,4.895-2.53c1.882-1.244,3.664-2.627,5.489-3.952
		c0.222-0.161,0.408-0.183,0.649-0.055c0.639,0.339,1.318,0.593,1.988,0.862c3.242,1.299,6.616,2.047,10.097,2.237
		c2.05,0.112,4.108,0.063,6.15-0.226c3.329-0.471,6.524-1.398,9.56-2.85c0.269-0.129,0.487-0.122,0.723,0.062
		c0.531,0.413,1.081,0.801,1.624,1.198c1.96,1.434,3.888,2.918,6.032,4.079c1.084,0.587,2.174,1.17,3.429,1.313
		c0.075,0,0.149,0,0.224,0c0.327-0.076,0.663,0.025,0.989-0.055c0.242-0.004,0.465-0.081,0.676-0.19
		c0.823-0.425,1.184-1.141,1.255-2.028c0.108-1.35-0.256-2.62-0.712-3.862c-1.001-2.725-2.417-5.238-3.99-7.666
		c-0.143-0.22-0.131-0.337,0.045-0.53C67.055,60.338,69.044,57.299,70.502,53.92z M39.802,68.117
		c-14.978-0.341-27.054-12.874-26.493-28.189c0.539-14.688,12.894-26.626,28.082-26.098C55.9,14.335,67.547,26.311,67.554,40.98
		C67.513,56.301,54.923,68.461,39.802,68.117z"/>
	<path fill="#54565F" d="M56.764,43.237c-0.177,0.09-0.367,0.05-0.551,0.05c-4.311,0.003-8.623,0.005-12.934-0.003
		c-0.279,0-0.484,0.077-0.701,0.256c-1.055,0.869-2.244,1.059-3.494,0.516c-1.248-0.542-1.942-1.536-2.018-2.901
		c-0.077-1.382,0.522-2.438,1.714-3.128c0.261-0.151,0.327-0.299,0.327-0.572c-0.006-5.42-0.004-10.841-0.006-16.261
		c0-0.252,0.016-0.497,0.12-0.73c0.248-0.559,0.858-0.884,1.435-0.764c0.626,0.13,1.057,0.63,1.062,1.267
		c0.008,1.072,0,2.143,0,3.215c0,4.424,0.003,8.847-0.002,13.271c0,0.268,0.012,0.476,0.328,0.566
		c0.16,0.046,0.325,0.157,0.432,0.285c0.291,0.35,0.662,0.361,1.072,0.36c4.274-0.009,8.548-0.008,12.822-0.004
		c1.218,0.001,2.106,0.696,2.363,1.826c0.293,1.292-0.639,2.626-1.916,2.742c-0.097-0.095-0.214-0.039-0.321-0.039
		c-4.436-0.001-8.871-0.001-13.307-0.002c-0.052,0-0.111,0.03-0.129,0.004c0.466,0,0.962,0,1.457,0c3.962,0,7.924,0,11.886,0.002
		C56.524,43.193,56.654,43.145,56.764,43.237z"/>
	<path fill="#54565F" d="M56.764,43.237c-1.805-0.004-3.611-0.009-5.416-0.011c-2.727-0.002-5.454,0-8.181,0
		c-0.134,0-0.268,0-0.475,0c0.199-0.109,0.336-0.072,0.467-0.072c4.321-0.002,8.642-0.002,12.963-0.004
		c0.197,0,0.396,0.031,0.59-0.051c0.135-0.057,0.149,0.021,0.107,0.129l-0.025,0.015L56.764,43.237z"/>
</g>
</svg>
