<?xml version="1.0" encoding="utf-8"?>
<!-- Generator: Adobe Illustrator 17.0.0, SVG Export Plug-In . SVG Version: 6.00 Build 0)  -->
<!DOCTYPE svg PUBLIC "-//W3C//DTD SVG 1.1//EN" "http://www.w3.org/Graphics/SVG/1.1/DTD/svg11.dtd">
<svg version="1.1" id="Layer_1" xmlns="http://www.w3.org/2000/svg" xmlns:xlink="http://www.w3.org/1999/xlink" x="0px" y="0px"
	 width="100px" height="100px" viewBox="0 0 100 100" enable-background="new 0 0 100 100" xml:space="preserve">
<g>
	<path d="M46.2,5.012c2.533,0,5.067,0,7.6,0c0.374,0.113,0.741,0.29,1.123,0.331c18.421,1.978,33.759,15.053,38.473,32.894
		c0.691,2.617,1.076,5.315,1.603,7.975c0,2.533,0,5.067,0,7.6c-0.158,0.974-0.321,1.947-0.474,2.922
		c-3.831,24.431-26.029,40.567-49.302,37.984C26.792,92.671,11.334,79.684,6.602,61.78C5.911,59.166,5.526,56.47,5,53.812
		c0-2.533,0-5.067,0-7.6c0.119-0.444,0.302-0.881,0.347-1.332c1.796-17.92,15.121-33.555,32.69-38.233
		C40.713,5.934,43.477,5.549,46.2,5.012z M47.219,10.95c-20.23,0.764-36.099,19.078-36.192,36.418c1.681,0,3.37,0,5.06,0
		c0,1.887,0,3.524,0,5.399c-1.794,0-3.483,0-5.174,0c1.011,21.367,20.316,36.356,36.398,36.176c0-1.633,0-3.272,0-5.003
		c1.864,0,3.554,0,5.486,0c0,1.808,0,3.493,0,5.181c21.445-1.161,36.167-20.238,36.148-36.352c-1.683,0-3.368,0-4.999,0
		c0-1.954,0-3.657,0-5.602c1.823,0,3.505,0,5.189,0c-1.322-21.356-19.908-35.952-36.458-36.169c0,1.684,0,3.375,0,5.045
		c-1.929,0-3.611,0-5.458,0C47.219,14.236,47.219,12.593,47.219,10.95z"/>
	<path d="M53.99,46.079c4.389-2.531,8.702-5.019,13.016-7.507c0.518-0.299,1.018-0.79,1.561-0.846
		c0.674-0.07,1.386,0.221,2.081,0.356c-0.214,0.672-0.231,1.566-0.684,1.968c-0.828,0.735-1.913,1.179-2.892,1.744
		c-3.455,1.992-6.893,4.014-10.378,5.954c-0.925,0.515-1.274,1.045-1.227,2.165c0.125,2.984-1.839,5.263-4.568,5.572
		c-3.285,0.372-5.547-1.243-6.399-4.359c-0.194-0.71-0.844-1.466-1.492-1.853c-4.509-2.688-9.089-5.256-13.612-7.922
		c-2.106-1.241-2.281-4.118-0.233-4.938c0.935-0.374,2.406-0.182,3.329,0.317c4.441,2.4,8.752,5.041,13.178,7.472
		c0.803,0.441,1.946,0.489,2.898,0.389C50.575,44.381,52.433,44.481,53.99,46.079z"/>
</g>
</svg>
