<?xml version="1.0" encoding="utf-8"?>
<!-- Generator: Adobe Illustrator 17.0.0, SVG Export Plug-In . SVG Version: 6.00 Build 0)  -->
<!DOCTYPE svg PUBLIC "-//W3C//DTD SVG 1.1//EN" "http://www.w3.org/Graphics/SVG/1.1/DTD/svg11.dtd">
<svg version="1.1" id="Layer_1" xmlns="http://www.w3.org/2000/svg" xmlns:xlink="http://www.w3.org/1999/xlink" x="0px" y="0px"
	 width="50px" height="50px" viewBox="0 0 50 50" enable-background="new 0 0 50 50" xml:space="preserve">
<g>
	<g>
		
			<circle fill="none" stroke="#000000" stroke-width="1.5169" stroke-miterlimit="10" stroke-dasharray="3.926,3.926" cx="25" cy="25" r="22.5"/>
	</g>
	<g>
		<path stroke="#000000" stroke-width="0.598" stroke-miterlimit="10" d="M19.196,25.319c0.778-0.334,1.513-0.654,2.253-0.965
			c0.308-0.13,0.62-0.256,0.938-0.357c0.555-0.175,1.075-0.057,1.525,0.291c0.791,0.614,1.571,1.241,2.341,1.881
			c0.514,0.427,0.77,1.001,0.844,1.659c0.018,0.159,0.035,0.319,0.056,0.507c0.079-0.029,0.148-0.053,0.215-0.079
			c1.503-0.586,3.005-1.173,4.508-1.759c0.409-0.16,0.825-0.28,1.266-0.15c0.598,0.177,0.973,0.58,1.085,1.187
			c0.111,0.601-0.142,1.074-0.64,1.401c-1.882,1.238-3.775,2.458-5.653,3.702c-0.584,0.387-1.198,0.369-1.835,0.245
			c-0.961-0.188-1.841-0.6-2.738-0.972c-0.857-0.356-1.727-0.677-2.597-1c-0.174-0.064-0.369-0.086-0.556-0.094
			c-0.327-0.015-0.655-0.004-1.011-0.004c0,0.332,0,0.644,0,0.956c0,0.274-0.062,0.336-0.329,0.336c-0.931,0-1.863,0-2.794,0
			c-0.269,0-0.325-0.053-0.325-0.315c-0.001-2.381-0.001-4.761,0-7.142c0-0.228,0.061-0.294,0.283-0.294
			c0.952-0.002,1.905-0.002,2.857,0.001c0.239,0.001,0.306,0.076,0.307,0.321C19.197,24.877,19.196,25.08,19.196,25.319z
			 M19.196,30.383c0.116,0,0.2-0.004,0.283,0.001c0.439,0.024,0.886,0.004,1.314,0.086c0.891,0.17,1.705,0.573,2.529,0.936
			c0.966,0.424,1.925,0.863,2.97,1.066c0.56,0.109,1.066,0.057,1.55-0.297c0.592-0.433,1.225-0.81,1.84-1.212
			c1.218-0.797,2.436-1.593,3.652-2.392c0.347-0.228,0.558-0.525,0.458-0.97c-0.104-0.465-0.387-0.747-0.85-0.848
			c-0.373-0.081-0.701,0.08-1.031,0.207c-1.595,0.618-3.187,1.246-4.784,1.859c-0.109,0.042-0.268,0.037-0.374-0.01
			c-0.644-0.288-1.28-0.594-1.919-0.894c-0.538-0.252-1.075-0.505-1.613-0.756c-0.135-0.063-0.202-0.163-0.145-0.302
			c0.059-0.144,0.184-0.156,0.318-0.103c0.058,0.023,0.115,0.051,0.172,0.078c0.892,0.419,1.783,0.838,2.675,1.257
			c0.142,0.067,0.285,0.132,0.446,0.206c0.009-0.78-0.224-1.418-0.825-1.895c-0.707-0.561-1.409-1.13-2.123-1.682
			c-0.168-0.13-0.366-0.236-0.566-0.303c-0.381-0.129-0.747-0.001-1.097,0.146c-0.908,0.382-1.811,0.776-2.718,1.159
			c-0.122,0.052-0.162,0.117-0.161,0.249c0.006,0.812,0.003,1.625,0.003,2.437C19.196,29.056,19.196,29.706,19.196,30.383z
			 M16.194,24.804c0,2.295,0,4.572,0,6.856c0.854,0,1.691,0,2.543,0c0-2.29,0-4.568,0-6.856
			C17.886,24.804,17.048,24.804,16.194,24.804z"/>
		<path stroke="#000000" stroke-width="0.598" stroke-miterlimit="10" d="M32.526,20.916c0.005,2.11-1.723,3.872-3.802,3.876
			c-2.2,0.004-3.933-1.696-3.939-3.864c-0.006-2.147,1.737-3.896,3.875-3.891C30.796,17.042,32.521,18.773,32.526,20.916z
			 M28.652,24.351c1.869,0.02,3.44-1.52,3.444-3.394c0.004-1.976-1.533-3.406-3.3-3.475c-1.929-0.075-3.552,1.429-3.579,3.405
			C25.191,22.795,26.72,24.33,28.652,24.351z"/>
		<path stroke="#000000" stroke-width="0.598" stroke-miterlimit="10" d="M28.442,18.763c0-0.141,0-0.267,0-0.393
			c0-0.149,0.075-0.249,0.223-0.248c0.141,0.001,0.205,0.101,0.205,0.241c0,0.132,0,0.265,0,0.376
			c0.21,0.092,0.411,0.156,0.587,0.262c0.292,0.174,0.465,0.44,0.494,0.786c0.011,0.134-0.046,0.258-0.185,0.253
			c-0.085-0.003-0.217-0.089-0.242-0.166c-0.185-0.566-0.652-0.812-1.221-0.621c-0.34,0.114-0.523,0.39-0.492,0.735
			c0.018,0.195,0.105,0.354,0.274,0.446c0.176,0.096,0.365,0.171,0.553,0.244c0.195,0.076,0.4,0.126,0.591,0.209
			c0.494,0.216,0.752,0.634,0.724,1.144c-0.024,0.435-0.368,0.848-0.859,0.974c-0.197,0.05-0.247,0.137-0.226,0.315
			c0.008,0.069,0.022,0.154-0.009,0.206c-0.045,0.074-0.134,0.175-0.196,0.169c-0.078-0.007-0.217-0.123-0.209-0.17
			c0.07-0.387-0.139-0.51-0.462-0.624c-0.372-0.132-0.586-0.441-0.633-0.845c-0.017-0.144,0.049-0.271,0.193-0.271
			c0.081,0,0.21,0.098,0.235,0.177c0.185,0.595,0.784,0.854,1.34,0.564c0.283-0.148,0.411-0.394,0.369-0.708
			c-0.029-0.219-0.148-0.382-0.342-0.472c-0.208-0.097-0.427-0.168-0.643-0.249c-0.163-0.061-0.333-0.108-0.489-0.183
			c-0.459-0.221-0.709-0.66-0.664-1.139c0.04-0.425,0.381-0.81,0.841-0.948C28.274,18.805,28.348,18.788,28.442,18.763z"/>
	</g>
</g>
</svg>
