<?xml version="1.0" encoding="utf-8"?>
<!-- Generator: Adobe Illustrator 17.0.0, SVG Export Plug-In . SVG Version: 6.00 Build 0)  -->
<!DOCTYPE svg PUBLIC "-//W3C//DTD SVG 1.1//EN" "http://www.w3.org/Graphics/SVG/1.1/DTD/svg11.dtd">
<svg version="1.1" id="Layer_1" xmlns="http://www.w3.org/2000/svg" xmlns:xlink="http://www.w3.org/1999/xlink" x="0px" y="0px"
	 width="100px" height="100px" viewBox="0 0 100 100" enable-background="new 0 0 100 100" xml:space="preserve">
<g>
	<g>
		<path d="M61.13,71.851L49.918,56.711L38.624,71.851H27.33l17.023-22.179L28.067,28.149h11.376l10.721,14.322l10.721-14.322h11.048
			L55.565,49.509L72.67,71.851H61.13z"/>
	</g>
	<path d="M50,5C25.147,5,5,25.147,5,50s20.147,45,45,45s45-20.147,45-45S74.853,5,50,5z M50,90.75C27.494,90.75,9.25,72.506,9.25,50
		C9.25,27.494,27.494,9.25,50,9.25S90.75,27.494,90.75,50C90.75,72.506,72.506,90.75,50,90.75z"/>
</g>
</svg>
