<?xml version="1.0" encoding="utf-8"?>
<!-- Generator: Adobe Illustrator 21.1.0, SVG Export Plug-In . SVG Version: 6.00 Build 0)  -->
<svg version="1.1" id="Layer_1" xmlns="http://www.w3.org/2000/svg" xmlns:xlink="http://www.w3.org/1999/xlink" x="0px" y="0px"
	 viewBox="0 0 319 319" style="enable-background:new 0 0 319 319;" xml:space="preserve">
<style type="text/css">
	.st0{opacity:0.38;fill:#3A4A9F;}
	.st1{fill:#636358;}
	.st2{fill:#515147;}
	.st3{fill:#EAEAE1;}
	.st4{fill:#C6C5AF;}
	.st5{fill:#AAA88F;}
	.st6{fill:#4C4C4C;}
	.st7{fill:#3A3A38;}
	.st8{fill:#E0DBD3;}
	.st9{fill:#72726A;}
	.st10{fill:#CCA483;}
	.st11{fill:#DBB491;}
	.st12{fill:#393C3D;}
	.st13{fill:#FAD52D;}
	.st14{fill:#E3C129;}
	.st15{fill:#FAE246;}
	.st16{fill:#3E3E42;}
	.st17{fill:#2D2E30;}
	.st18{fill:#1B1B1C;}
	.st19{fill:#EAF1C1;}
</style>
<circle class="st0" cx="159.5" cy="159.5" r="130"/>
<g>
	<g>
		<path class="st1" d="M202,175.9c-6.9-23.2-41.3-20.6-56.1-27.3c-14.9-6.7-12.5-29-14.4-32.9H95.2c-1.9,3.9,0.4,26.3-14.4,32.9
			c-14.9,6.7-49.3,4.1-56.1,27.3c-3.8,12.8-3.6,16.7-4.6,30.9c0,0,47.2,9.3,92.3,9.3s94.4-9.3,94.4-9.3
			C205.6,192.7,205.8,188.7,202,175.9z"/>
		<path class="st2" d="M202,175.9c-6.9-23.2-41.3-20.6-56.1-27.3c-14.9-6.7-12.5-29-14.4-32.9h-19.2c0,0-0.4,31.4,14.4,38.1
			s49.3,4.1,56.1,27.3c3.6,12.2,3.6,16.3,4.5,29c11.8-1.7,19.3-3.2,19.3-3.2C205.6,192.7,205.8,188.7,202,175.9z"/>
		<g>
			<path class="st3" d="M122.7,216c6.4-16.4,14.9-45.5,16.2-73.5H87.6c1.4,28,9.9,57.1,16.3,73.5c2.8,0.1,5.6,0.1,8.4,0.1
				C115.7,216.2,119.2,216.1,122.7,216z"/>
			<g>
				<polygon class="st4" points="136.4,153 123.6,165.2 120.5,146.5 				"/>
				<polygon class="st4" points="89.7,153 103.1,165.2 105.5,146.4 				"/>
				<polygon class="st4" points="121,146.4 105.5,146.4 104.4,150.2 122.2,150.3 				"/>
				<polygon class="st5" points="105.5,146.4 104.4,150.2 105,150.7 				"/>
				<polygon class="st5" points="122.2,150.3 120.5,146.5 121.2,150.9 				"/>
				<path class="st6" d="M121.9,216l0.4-4.9l-3.7-49.5h-9.9l-4.4,49.5l0.4,5c2.5,0.1,5.1,0.1,7.6,0.1
					C115.5,216.2,118.7,216.1,121.9,216z"/>
				<polygon class="st7" points="108.7,161.8 118.5,161.6 118.7,164.4 				"/>
				<polygon class="st6" points="101.7,148 124.9,148 123.6,155.9 118.3,161.8 108.7,161.8 103,155.9 				"/>
				<path class="st3" d="M105.5,146.4l-15.8-8.6c0,0-2.1,3-7.3,10l19.5,14.1l1.7-9.2L105.5,146.4z"/>
				<path class="st3" d="M120.5,146.4l15.8-8.6c0,0,2.1,3,7.3,10l-19.5,14.1l-1.7-9.2L120.5,146.4z"/>
				<path class="st8" d="M136.3,137.8l-15.8,8.6l1.1,3.6c1.5,1.6,3.1,2.9,5.1,3.8c1.7,0.8,3.7,1.4,5.9,2l11-8
					C138.4,140.8,136.3,137.8,136.3,137.8z"/>
			</g>
			<g>
				<path class="st2" d="M158.7,174.2l-9.4-3.4l8.5-2.3l-8.1-18.4L124.6,216c2.9-0.1,5.9-0.2,8.8-0.4L158.7,174.2z"/>
				<path class="st2" d="M68.3,168.5l8.5,2.3l-9.4,3.4l25.4,41.4c2.9,0.2,5.8,0.3,8.8,0.4l-25.1-65.8L68.3,168.5z"/>
			</g>
			<g>
				<path class="st9" d="M156.1,174.7l-9.1-3.8l8.3-2.9l-5.5-17.9l-10.4-8.1l-19.8,74.2c4.3-0.1,8.6-0.3,12.9-0.5L156.1,174.7z"/>
				<path class="st1" d="M139.3,141.9l-3.9,14.5c5.3,1.2,11.3,2.2,17.3,3.5l-3.1-9.9L139.3,141.9z"/>
				<path class="st9" d="M76.3,150.2L70.8,168l8.3,2.9l-9.1,3.8l23.7,41c4.2,0.2,8.5,0.4,12.8,0.4l-19.8-74.2L76.3,150.2z"/>
			</g>
		</g>
		<g>
			
				<ellipse transform="matrix(0.177 -0.9842 0.9842 0.177 36.7722 229.8142)" class="st10" cx="155.8" cy="92.9" rx="13.2" ry="7.2"/>
			
				<ellipse transform="matrix(0.9842 -0.177 0.177 0.9842 -15.3307 13.9926)" class="st11" cx="70.8" cy="92.9" rx="7.2" ry="13.2"/>
			<path class="st11" d="M152.8,49.1h-39.5H73.8c0,0-22.1,90.2,39.5,98.9C174.9,139.3,152.8,49.1,152.8,49.1z"/>
			<path class="st10" d="M113.3,148c61.6-8.7,39.5-98.9,39.5-98.9h-9.2c2.5,37.7,6,57.7-8.5,79.5C123.5,145.9,113.3,148,113.3,148z"
				/>
			<path class="st12" d="M130.8,23.4c0,0-12.2-5.7-28.6-2.2c-12.3,2.6-32.2,11-36.7,28.8c0,0-6.7,29.2,4.7,41.8
				c0,0-0.6-11.4,0.6-20.5c0,0,6.9,3,20.7,2.9c18.6-0.2,36.6-7.9,42.1-16.2c0,0-0.6,12-6.7,16.9c0,0,21.2-3.3,27.5-15.9
				c0,0,2.1,11,2.1,31.5c0,0,3.3-4.6,4.1-12.1c1.8-16.9-1.4-40.2-14.1-39.4C146.5,38.9,141.2,28.3,130.8,23.4z"/>
			<path class="st10" d="M126.9,74.8c6-4.9,6.7-16.9,6.7-16.9c-5.5,8.3-23.5,16-42.1,16.2c-13.4,0.2-20.3-2.7-20.7-2.9
				c0.9,0.4,27.2,11.4,56.4-2.4c0,0-1.6,5.9-5,7.9c0,0,27-0.5,32.2-17.8C148.1,71.5,126.9,74.8,126.9,74.8z"/>
		</g>
	</g>
</g>
<g>
	<circle class="st13" cx="201.8" cy="181.8" r="20.9"/>
	<path class="st14" d="M201.8,160.9v41.9c11.6,0,20.9-9.4,20.9-20.9C222.8,170.3,213.4,160.9,201.8,160.9z"/>
	<circle class="st15" cx="201.8" cy="181.8" r="14.8"/>
	<circle class="st13" cx="244.1" cy="158" r="20.9"/>
	<path class="st14" d="M244.1,137.1V179c11.6,0,20.9-9.4,20.9-20.9C265,146.5,255.6,137.1,244.1,137.1z"/>
	<circle class="st15" cx="244.1" cy="158" r="14.8"/>
	<path class="st16" d="M280.4,299H158.8c-4.3,0-7.7-3.4-7.7-7.7V202c0-4.3,3.4-7.7,7.7-7.7h121.6c4.3,0,7.7,3.4,7.7,7.7v89.2
		C288.1,295.5,284.7,299,280.4,299z"/>
	<g>
		<path class="st17" d="M280.4,292H158.8c-4.3,0-7.7-3.4-7.7-7.7v7c0,4.3,3.4,7.7,7.7,7.7h121.6c4.3,0,7.7-3.4,7.7-7.7v-7
			C288.1,288.5,284.7,292,280.4,292z"/>
		<path class="st17" d="M280.4,194.3h-60.8V299h60.8c4.3,0,7.7-3.4,7.7-7.7V202C288.1,197.8,284.7,194.3,280.4,194.3z"/>
	</g>
	<path class="st18" d="M288.1,234.4h-45c-3.5,0-6.3,2.8-6.3,6.3v21c0,3.5,2.8,6.3,6.3,6.3h45V234.4L288.1,234.4z"/>
	<path class="st16" d="M292.7,263.4h-49.6c-3.5,0-6.3-2.8-6.3-6.3v-21c0-3.5,2.8-6.3,6.3-6.3h49.6c3.5,0,6.3,2.8,6.3,6.3v21
		C299,260.6,296.1,263.4,292.7,263.4z"/>
	<circle class="st18" cx="253.5" cy="250.2" r="7.4"/>
	<circle class="st19" cx="253.5" cy="246.6" r="7.4"/>
</g>
</svg>
