<?xml version="1.0" encoding="utf-8"?>
<!-- Generator: Adobe Illustrator 17.0.0, SVG Export Plug-In . SVG Version: 6.00 Build 0)  -->
<!DOCTYPE svg PUBLIC "-//W3C//DTD SVG 1.1//EN" "http://www.w3.org/Graphics/SVG/1.1/DTD/svg11.dtd">
<svg version="1.1" id="Capa_1" xmlns="http://www.w3.org/2000/svg" xmlns:xlink="http://www.w3.org/1999/xlink" x="0px" y="0px"
	 width="1080px" height="1089.109px" viewBox="0 413.264 1080 1089.109" enable-background="new 0 413.264 1080 1089.109"
	 xml:space="preserve">
<g>
	<path fill="#FCFCFC" d="M718.131,938.886L493.872,775.867c-8.23-5.966-19.155-6.864-28.176-2.228
		c-9.093,4.6-14.771,13.944-14.771,24.043v325.93c0,10.207,5.678,19.515,14.771,24.115c3.845,1.941,8.05,2.911,12.291,2.911
		c5.535,0,11.141-1.761,15.885-5.247l224.259-162.875c7.08-5.211,11.213-13.261,11.213-21.815
		C729.38,952.004,725.139,943.989,718.131,938.886z"/>
	<path fill="#FCFCFC" d="M540.018,420.072C241.725,420.072,0,661.797,0,960.09c0,298.185,241.725,539.838,540.018,539.838
		c298.221,0,539.982-241.689,539.982-539.838C1080.036,661.797,838.239,420.072,540.018,420.072z M540.018,1409.829
		c-248.41,0-449.811-201.294-449.811-449.739c0-248.338,201.402-449.883,449.811-449.883c248.374,0,449.74,201.509,449.74,449.883
		C989.793,1208.536,788.392,1409.829,540.018,1409.829z"/>
</g>
</svg>
